<?xml version="1.0" encoding="iso-8859-1"?>
<!-- Generator: Adobe Illustrator 18.0.0, SVG Export Plug-In . SVG Version: 6.00 Build 0)  -->
<!DOCTYPE svg PUBLIC "-//W3C//DTD SVG 1.1//EN" "http://www.w3.org/Graphics/SVG/1.1/DTD/svg11.dtd">
<svg version="1.1" id="Capa_1" xmlns="http://www.w3.org/2000/svg" xmlns:xlink="http://www.w3.org/1999/xlink" x="0px" y="0px"
	 viewBox="0 0 493.111 493.111" style="enable-background:new 0 0 493.111 493.111;" xml:space="preserve">
<g>
	<path d="M236.653,158.701h-83.389c-10.779,0-19.519,8.739-19.519,19.519v1.321l-20.598-28.055
		c-5.951-17.79-21.854-31.346-41.73-33.223c-12.912-1.191-25.124,2.865-34.65,10.314c20.291-9.553,44.485-0.91,54.137,19.369
		l22.383,47.055l3.615,7.599l38.479-3.63c19.429-1.85,36.675,10.147,42.474,27.796c0.939,2.857,1.647,5.827,1.943,8.948
		c2.118,22.408-14.344,42.292-36.743,44.401l-2.615,0.247h76.214c10.778,0,19.518-8.741,19.518-19.518V178.22
		C256.172,167.44,247.432,158.701,236.653,158.701z"/>
	<path d="M92.321,286.611c-15.602,0-29.993-8.955-36.792-23.251L17.29,182.955c-0.38-0.797-0.55-1.63-0.872-2.438L6.703,283.411
		c-1.306,13.789,3.305,26.723,11.676,36.451l24.033,70.452l-9.568,70.423c-2.117,15.618,8.82,29.993,24.438,32.111
		c1.305,0.183,2.595,0.263,3.868,0.263c14.058,0,26.3-10.38,28.242-24.684l10.476-77.101c0.589-4.394,0.159-8.868-1.273-13.055
		l-16.781-49.186c12.172-7.844,20.793-20.939,22.258-36.472l0.661-6.993l-8.558,0.808C94.885,286.556,93.595,286.611,92.321,286.611
		z"/>
	<path d="M105.058,99.255c26.952-7.021,43.112-34.57,36.091-61.523S106.586-5.381,79.634,1.641
		C52.68,8.662,36.522,36.212,43.542,63.163C50.563,90.118,78.105,106.276,105.058,99.255z"/>
	<path d="M70.256,256.355c4.076,8.581,12.704,13.954,22.065,13.954c0.765,0,1.544-0.032,2.309-0.111l66.88-6.312
		c13.453-1.266,23.323-13.198,22.05-26.643c-1.273-13.437-13.198-23.466-26.634-22.041l-49.847,4.704l-30.901-64.954
		c-5.795-12.211-20.393-17.393-32.588-11.582c-12.195,5.795-17.369,20.386-11.574,32.581L70.256,256.355z"/>
	<path d="M337.73,198.971l38.479,3.63l3.615-7.599l22.382-47.055c9.659-20.278,33.882-28.922,54.185-19.351
		c-9.534-7.478-21.767-11.545-34.699-10.332c-19.876,1.876-35.779,15.433-41.729,33.223l-29.497,40.177L313.596,182
		c-13.008-3.415-26.428,4.394-29.852,17.456c-2.857,10.911,2.189,21.951,11.525,27.318
		C301.135,209.108,318.61,197.107,337.73,198.971z"/>
	<path d="M486.408,283.411l-9.716-102.894c-0.322,0.808-0.492,1.641-0.871,2.438l-38.24,80.405
		c-6.798,14.296-21.19,23.251-36.792,23.251c-1.273,0-2.563-0.056-3.853-0.183l-8.557-0.808l0.66,6.993
		c1.466,15.533,10.087,28.628,22.259,36.472l-16.782,49.186c-1.433,4.187-1.862,8.661-1.273,13.055l10.476,77.101
		c1.942,14.304,14.185,24.684,28.242,24.684c1.273,0,2.564-0.08,3.869-0.263c15.617-2.118,26.555-16.493,24.438-32.111
		l-9.568-70.423l24.033-70.452C483.103,310.134,487.713,297.201,486.408,283.411z"/>
	<path d="M388.054,99.255c26.952,7.021,54.495-9.138,61.515-36.092c7.021-26.952-9.138-54.501-36.091-61.522
		c-26.953-7.021-54.494,9.139-61.517,36.091C344.941,64.685,361.101,92.234,388.054,99.255z"/>
	<path d="M400.789,270.309c9.361,0,17.99-5.373,22.065-13.954l38.241-80.405c5.794-12.195,0.62-26.786-11.574-32.581
		c-12.18-5.811-26.778-0.629-32.589,11.582l-30.901,64.954l-49.846-4.704c-13.229-1.425-25.361,8.581-26.635,22.041
		c-1.273,13.445,8.598,25.377,22.05,26.643l66.881,6.312C399.245,270.277,400.025,270.309,400.789,270.309z"/>
</g>
<g>
</g>
<g>
</g>
<g>
</g>
<g>
</g>
<g>
</g>
<g>
</g>
<g>
</g>
<g>
</g>
<g>
</g>
<g>
</g>
<g>
</g>
<g>
</g>
<g>
</g>
<g>
</g>
<g>
</g>
</svg>
