<?xml version="1.0" encoding="UTF-8" standalone="no"?>
<svg width="297px" height="297px" viewBox="0 0 297 297" version="1.1" xmlns="http://www.w3.org/2000/svg" xmlns:xlink="http://www.w3.org/1999/xlink" xmlns:sketch="http://www.bohemiancoding.com/sketch/ns">
    <!-- Generator: Sketch 3.3.2 (12043) - http://www.bohemiancoding.com/sketch -->
    <title>robin_logo</title>
    <desc>Created with Sketch.</desc>
    <defs></defs>
    <g id="Page-1" stroke="none" stroke-width="1" fill="none" fill-rule="evenodd" sketch:type="MSPage">
        <circle id="Oval-1" stroke="#671368" stroke-width="15" fill="#FFFFFF" sketch:type="MSShapeGroup" cx="148.326392" cy="148.326392" r="133.326392"></circle>
        <path d="M102.065767,165.633975 L150.244305,161.06125 C150.49038,161.016371 150.742344,160.995675 150.999003,161.000752 C151.255665,160.995675 151.507619,161.016371 151.753675,161.06125 L199.930243,165.633975 C202.93699,165.920828 205.196527,169.23493 204.978507,173.045002 L201.519191,234.301898 C201.307103,238.108043 198.867246,241.425777 196.06446,241.712925 L151.668831,249.982727 C151.435008,249.987785 105.899606,241.712925 105.899606,241.712925 C103.096938,241.425777 100.658442,238.108043 100.447919,234.301898 L97.0143231,173.045002 C96.7979362,169.23493 99.058897,165.920828 102.065767,165.633975 Z" id="Rectangle-1" stroke="#671368" fill="#671368" sketch:type="MSShapeGroup"></path>
        <text id="Type-something" sketch:type="MSTextLayer" font-family="Helvetica" font-size="12" font-weight="normal" fill="#000000">
            <tspan x="170" y="180">671368</tspan>
        </text>
        <path d="M218.574377,132.821036 C224.622152,132.198207 230.13915,129.516815 230.13915,129.516815 C230.13915,129.516815 206.444918,171.981218 155.845809,171.981218 C118.320505,171.981218 92.2865615,141.642692 81.3588616,121.4773 C80.1128691,119.178012 77.738718,114.096385 76.8954207,111.121762 C75.1619709,105.007241 75.0997187,102.742626 75.0997187,102.742626 L68,99.6739597 L75.0997187,95.2105188 C75.0997187,95.2105188 76.0491982,69.9738867 98.5317751,62.533743 C121.014352,55.0935992 138.250994,77.1397544 138.250994,77.1397544 L151.784978,95.2105196 C151.784978,95.2105196 179.128864,125.304384 215.270156,117.952042 C215.744384,117.855568 210.313825,127.03865 206.183549,130.342871 C203.962923,132.119371 211.541755,133.54529 218.574377,132.821036 Z" id="Path-2" stroke="#671368" stroke-width="3" fill="#671368" sketch:type="MSShapeGroup"></path>
        <path d="M100.422683,194.95552 C97.3007433,194.833111 94.6872246,193.418786 94.5798251,191.796254 L93.002246,165.68289 C92.9138043,164.058684 95.4483221,162.645906 98.6626621,162.523623 L150.015181,157.009005 C150.276616,156.989873 151.283268,157.00684 151.55592,157.009005 C151.828575,157.00684 202.942063,162.523622 202.942063,162.523622 C206.156287,162.645905 208.689468,164.058683 208.599484,165.682889 L206.996408,191.796255 C206.887384,193.418787 204.272445,194.833112 201.150382,194.955521 L151.55592,200.897667 C151.304657,200.916767 100.422683,194.95552 100.422683,194.95552 Z" id="Rectangle-1-Copy" stroke="#671368" stroke-width="2" fill="#671368" sketch:type="MSShapeGroup"></path>
        <path d="M128.89966,190.545497 L131.509208,245.192488 C131.553702,246.122407 131.257109,246.82239 130.858206,246.757691 L119.888785,245.005728 C119.485089,244.942254 119.116213,244.201002 119.062884,243.317075 L116.00558,192.454968 C115.954618,191.603868 116.258718,190.860735 116.672876,190.796641 L128.061573,189.004594 C128.480692,188.937556 128.855157,189.61162 128.89966,190.545497 Z" id="Rectangle-1-Copy-3" stroke="#671368" stroke-width="2" fill="#FFFFFF" sketch:type="MSShapeGroup"></path>
        <path d="M113.813669,160.465016 L126.822886,159.004679 C127.301642,158.949812 127.706676,159.383378 127.728397,159.996257 L129.016102,195.78831 C129.038294,196.396197 128.678196,196.845108 128.224822,196.79248 L115.75754,195.373521 C115.29872,195.322342 114.901118,194.837618 114.868245,194.269599 L113.001795,161.552532 C112.970992,161.004478 113.34058,160.517013 113.813669,160.465016 Z" id="Rectangle-1" stroke="#671368" stroke-width="2" fill="#FFFFFF" sketch:type="MSShapeGroup"></path>
        <path d="M186.89966,190.545497 L189.509208,245.192488 C189.553702,246.122407 189.257109,246.82239 188.858206,246.757691 L177.888785,245.005728 C177.485089,244.942254 177.116213,244.201002 177.062884,243.317075 L174.00558,192.454968 C173.954618,191.603868 174.258718,190.860735 174.672876,190.796641 L186.061573,189.004594 C186.480692,188.937556 186.855157,189.61162 186.89966,190.545497 Z" id="Rectangle-1-Copy-4" stroke="#671368" stroke-width="2" fill="#FFFFFF" sketch:type="MSShapeGroup" transform="translate(181.756815, 217.880919) scale(-1, 1) translate(-181.756815, -217.880919) "></path>
        <path d="M176.813669,160.465016 L189.822886,159.004679 C190.301642,158.949812 190.706676,159.383378 190.728397,159.996257 L192.016102,195.78831 C192.038294,196.396197 191.678196,196.845108 191.224822,196.79248 L178.75754,195.373521 C178.29872,195.322342 177.901118,194.837618 177.868245,194.269599 L176.001795,161.552532 C175.970992,161.004478 176.34058,160.517013 176.813669,160.465016 Z" id="Rectangle-1-Copy-2" stroke="#671368" stroke-width="2" fill="#FFFFFF" sketch:type="MSShapeGroup" transform="translate(184.008538, 177.898336) scale(-1, 1) translate(-184.008538, -177.898336) "></path>
    </g>
</svg>