<?xml version="1.0" encoding="UTF-8" standalone="no"?>
<svg width="283px" height="283px" viewBox="0 0 283 283" version="1.1" xmlns="http://www.w3.org/2000/svg" xmlns:xlink="http://www.w3.org/1999/xlink" xmlns:sketch="http://www.bohemiancoding.com/sketch/ns">
    <!-- Generator: Sketch 3.3.2 (12043) - http://www.bohemiancoding.com/sketch -->
    <title>robin_logo copy</title>
    <desc>Created with Sketch.</desc>
    <defs></defs>
    <g id="Page-1" stroke="none" stroke-width="1" fill="none" fill-rule="evenodd" sketch:type="MSPage">
        <g id="robin_logo" sketch:type="MSLayerGroup" transform="translate(8.000000, 8.000000)" stroke="#671368">
            <g id="Page-1" sketch:type="MSShapeGroup">
                <circle id="Oval-1" stroke-width="15" fill="#FFFFFF" cx="133.326392" cy="133.326392" r="133.326392"></circle>
                <path d="M87.065767,150.633975 L135.244305,146.06125 C135.49038,146.016371 135.742344,145.995675 135.999003,146.000752 C136.255665,145.995675 136.507619,146.016371 136.753675,146.06125 L184.930243,150.633975 C187.93699,150.920828 190.196527,154.23493 189.978507,158.045002 L186.519191,219.301898 C186.307103,223.108043 183.867246,226.425777 181.06446,226.712925 L136.668831,234.982727 C136.435008,234.987785 90.899606,226.712925 90.899606,226.712925 C88.096938,226.425777 85.658442,223.108043 85.447919,219.301898 L82.0143231,158.045002 C81.7979362,154.23493 84.058897,150.920828 87.065767,150.633975 L87.065767,150.633975 Z" id="Rectangle-1" fill="#671368"></path>
                <path d="M203.574377,117.821036 C209.622152,117.198207 215.13915,114.516815 215.13915,114.516815 C215.13915,114.516815 191.444918,156.981218 140.845809,156.981218 C103.320505,156.981218 77.2865615,126.642692 66.3588616,106.4773 C65.1128691,104.178012 62.738718,99.096385 61.8954207,96.121762 C60.1619709,90.007241 60.0997187,87.742626 60.0997187,87.742626 L53,84.6739597 L60.0997187,80.2105188 C60.0997187,80.2105188 61.0491982,54.9738867 83.5317751,47.533743 C106.014352,40.0935992 123.250994,62.1397544 123.250994,62.1397544 L136.784978,80.2105196 C136.784978,80.2105196 164.128864,110.304384 200.270156,102.952042 C200.744384,102.855568 195.313825,112.03865 191.183549,115.342871 C188.962923,117.119371 196.541755,118.54529 203.574377,117.821036 L203.574377,117.821036 Z" id="Path-2" stroke-width="3" fill="#671368"></path>
                <path d="M79.5798251,176.796254 L78.002246,150.68289 C77.9138043,149.058684 80.4483221,147.645906 83.6626621,147.523623 L135.015181,142.009005 C135.276616,141.989873 136.283268,142.00684 136.55592,142.009005 C136.828575,142.00684 187.942063,147.523622 187.942063,147.523622 C191.156287,147.645905 193.689468,149.058683 193.599484,150.682889 L191.996408,176.796255 C191.887384,178.418787 189.272445,179.833112 186.150382,179.955521 L136.55592,185.897667 C136.304657,185.916767 85.422683,179.95552 85.422683,179.95552 C82.3007433,179.833111 79.6872246,178.418786 79.5798251,176.796254 Z" id="Rectangle-1-Copy" stroke-width="2" fill="#671368"></path>
                <path d="M113.89966,175.545497 L116.509208,230.192488 C116.553702,231.122407 116.257109,231.82239 115.858206,231.757691 L104.888785,230.005728 C104.485089,229.942254 104.116213,229.201002 104.062884,228.317075 L101.00558,177.454968 C100.954618,176.603868 101.258718,175.860735 101.672876,175.796641 L113.061573,174.004594 C113.480692,173.937556 113.855157,174.61162 113.89966,175.545497 L113.89966,175.545497 Z" id="Rectangle-1-Copy-3" stroke-width="2" fill="#FFFFFF"></path>
                <path d="M98.813669,145.465016 L111.822886,144.004679 C112.301642,143.949812 112.706676,144.383378 112.728397,144.996257 L114.016102,180.78831 C114.038294,181.396197 113.678196,181.845108 113.224822,181.79248 L100.75754,180.373521 C100.29872,180.322342 99.901118,179.837618 99.868245,179.269599 L98.001795,146.552532 C97.970992,146.004478 98.34058,145.517013 98.813669,145.465016 L98.813669,145.465016 Z" id="Rectangle-1" stroke-width="2" fill="#FFFFFF"></path>
                <path d="M171.89966,175.545497 L174.509208,230.192488 C174.553702,231.122407 174.257109,231.82239 173.858206,231.757691 L162.888785,230.005728 C162.485089,229.942254 162.116213,229.201002 162.062884,228.317075 L159.00558,177.454968 C158.954618,176.603868 159.258718,175.860735 159.672876,175.796641 L171.061573,174.004594 C171.480692,173.937556 171.855157,174.61162 171.89966,175.545497 L171.89966,175.545497 Z" id="Rectangle-1-Copy-4" stroke-width="2" fill="#FFFFFF" transform="translate(166.756815, 202.880919) scale(-1, 1) translate(-166.756815, -202.880919) "></path>
                <path d="M161.813669,145.465016 L174.822886,144.004679 C175.301642,143.949812 175.706676,144.383378 175.728397,144.996257 L177.016102,180.78831 C177.038294,181.396197 176.678196,181.845108 176.224822,181.79248 L163.75754,180.373521 C163.29872,180.322342 162.901118,179.837618 162.868245,179.269599 L161.001795,146.552532 C160.970992,146.004478 161.34058,145.517013 161.813669,145.465016 L161.813669,145.465016 Z" id="Rectangle-1-Copy-2" stroke-width="2" fill="#FFFFFF" transform="translate(169.008538, 162.898336) scale(-1, 1) translate(-169.008538, -162.898336) "></path>
            </g>
        </g>
    </g>
</svg>